  0
SECTION
  2
HEADER
  9
$ACADVER
  1
AC1009
  9
$INSUNITS
 70
4
  9
$EXTMIN
 10
0.0000
 20
0.0000
 30
0.0000
  9
$EXTMAX
 10
1130.0000
 20
648.0000
 30
0.0000
  0
ENDSEC
  0
SECTION
  2
TABLES
  0
TABLE
  2
LAYER
 70
3
  0
LAYER
  2
CUT
 70
0
 62
1
  6
CONTINUOUS
  0
LAYER
  2
ENGRAVE
 70
0
 62
5
  6
CONTINUOUS
  0
LAYER
  2
LABELS
 70
0
 62
8
  6
CONTINUOUS
  0
ENDTAB
  0
ENDSEC
  0
SECTION
  2
ENTITIES
  0
POLYLINE
  8
CUT
 66
1
 10
0.0000
 20
0.0000
 30
0.0000
 70
1
  0
VERTEX
  8
CUT
 10
210.5710
 20
638.0000
 30
0.0000
  0
VERTEX
  8
CUT
 10
159.4290
 20
638.0000
 30
0.0000
  0
VERTEX
  8
CUT
 10
159.4290
 20
642.0000
 30
0.0000
  0
VERTEX
  8
CUT
 10
108.2860
 20
642.0000
 30
0.0000
  0
VERTEX
  8
CUT
 10
108.2860
 20
638.0000
 30
0.0000
  0
VERTEX
  8
CUT
 10
57.1430
 20
638.0000
 30
0.0000
  0
VERTEX
  8
CUT
 10
57.1430
 20
642.0000
 30
0.0000
  0
VERTEX
  8
CUT
 10
6.0000
 20
642.0000
 30
0.0000
  0
VERTEX
  8
CUT
 10
6.0000
 20
596.6670
 30
0.0000
  0
VERTEX
  8
CUT
 10
10.0000
 20
596.6670
 30
0.0000
  0
VERTEX
  8
CUT
 10
10.0000
 20
551.3330
 30
0.0000
  0
VERTEX
  8
CUT
 10
6.0000
 20
551.3330
 30
0.0000
  0
VERTEX
  8
CUT
 10
6.0000
 20
506.0000
 30
0.0000
  0
VERTEX
  8
CUT
 10
10.0000
 20
506.0000
 30
0.0000
  0
VERTEX
  8
CUT
 10
10.0000
 20
460.6670
 30
0.0000
  0
VERTEX
  8
CUT
 10
6.0000
 20
460.6670
 30
0.0000
  0
VERTEX
  8
CUT
 10
6.0000
 20
415.3330
 30
0.0000
  0
VERTEX
  8
CUT
 10
10.0000
 20
415.3330
 30
0.0000
  0
VERTEX
  8
CUT
 10
10.0000
 20
370.0000
 30
0.0000
  0
VERTEX
  8
CUT
 10
6.0000
 20
370.0000
 30
0.0000
  0
VERTEX
  8
CUT
 10
6.0000
 20
324.6670
 30
0.0000
  0
VERTEX
  8
CUT
 10
10.0000
 20
324.6670
 30
0.0000
  0
VERTEX
  8
CUT
 10
10.0000
 20
279.3330
 30
0.0000
  0
VERTEX
  8
CUT
 10
6.0000
 20
279.3330
 30
0.0000
  0
VERTEX
  8
CUT
 10
6.0000
 20
234.0000
 30
0.0000
  0
VERTEX
  8
CUT
 10
57.1430
 20
234.0000
 30
0.0000
  0
VERTEX
  8
CUT
 10
57.1430
 20
238.0000
 30
0.0000
  0
VERTEX
  8
CUT
 10
108.2860
 20
238.0000
 30
0.0000
  0
VERTEX
  8
CUT
 10
108.2860
 20
234.0000
 30
0.0000
  0
VERTEX
  8
CUT
 10
159.4290
 20
234.0000
 30
0.0000
  0
VERTEX
  8
CUT
 10
159.4290
 20
238.0000
 30
0.0000
  0
VERTEX
  8
CUT
 10
210.5710
 20
238.0000
 30
0.0000
  0
VERTEX
  8
CUT
 10
210.5710
 20
234.0000
 30
0.0000
  0
VERTEX
  8
CUT
 10
261.7140
 20
234.0000
 30
0.0000
  0
VERTEX
  8
CUT
 10
261.7140
 20
238.0000
 30
0.0000
  0
VERTEX
  8
CUT
 10
312.8570
 20
238.0000
 30
0.0000
  0
VERTEX
  8
CUT
 10
312.8570
 20
234.0000
 30
0.0000
  0
VERTEX
  8
CUT
 10
364.0000
 20
234.0000
 30
0.0000
  0
VERTEX
  8
CUT
 10
364.0000
 20
279.3330
 30
0.0000
  0
VERTEX
  8
CUT
 10
360.0000
 20
279.3330
 30
0.0000
  0
VERTEX
  8
CUT
 10
360.0000
 20
324.6670
 30
0.0000
  0
VERTEX
  8
CUT
 10
364.0000
 20
324.6670
 30
0.0000
  0
VERTEX
  8
CUT
 10
364.0000
 20
370.0000
 30
0.0000
  0
VERTEX
  8
CUT
 10
360.0000
 20
370.0000
 30
0.0000
  0
VERTEX
  8
CUT
 10
360.0000
 20
415.3330
 30
0.0000
  0
VERTEX
  8
CUT
 10
364.0000
 20
415.3330
 30
0.0000
  0
VERTEX
  8
CUT
 10
364.0000
 20
460.6670
 30
0.0000
  0
VERTEX
  8
CUT
 10
360.0000
 20
460.6670
 30
0.0000
  0
VERTEX
  8
CUT
 10
360.0000
 20
506.0000
 30
0.0000
  0
VERTEX
  8
CUT
 10
364.0000
 20
506.0000
 30
0.0000
  0
VERTEX
  8
CUT
 10
364.0000
 20
551.3330
 30
0.0000
  0
VERTEX
  8
CUT
 10
360.0000
 20
551.3330
 30
0.0000
  0
VERTEX
  8
CUT
 10
360.0000
 20
596.6670
 30
0.0000
  0
VERTEX
  8
CUT
 10
364.0000
 20
596.6670
 30
0.0000
  0
VERTEX
  8
CUT
 10
364.0000
 20
642.0000
 30
0.0000
  0
VERTEX
  8
CUT
 10
312.8570
 20
642.0000
 30
0.0000
  0
VERTEX
  8
CUT
 10
312.8570
 20
638.0000
 30
0.0000
  0
VERTEX
  8
CUT
 10
261.7140
 20
638.0000
 30
0.0000
  0
VERTEX
  8
CUT
 10
261.7140
 20
642.0000
 30
0.0000
  0
VERTEX
  8
CUT
 10
210.5710
 20
642.0000
 30
0.0000
  0
SEQEND
  8
CUT
  0
TEXT
  8
LABELS
 10
185.0000
 20
436.0000
 30
0.0000
 40
5
  1
Bottom
 72
1
 11
185.0000
 21
436.0000
 31
0.0000
  0
POLYLINE
  8
CUT
 66
1
 10
0.0000
 20
0.0000
 30
0.0000
 70
1
  0
VERTEX
  8
CUT
 10
574.5710
 20
638.0000
 30
0.0000
  0
VERTEX
  8
CUT
 10
523.4290
 20
638.0000
 30
0.0000
  0
VERTEX
  8
CUT
 10
523.4290
 20
642.0000
 30
0.0000
  0
VERTEX
  8
CUT
 10
472.2860
 20
642.0000
 30
0.0000
  0
VERTEX
  8
CUT
 10
472.2860
 20
638.0000
 30
0.0000
  0
VERTEX
  8
CUT
 10
421.1430
 20
638.0000
 30
0.0000
  0
VERTEX
  8
CUT
 10
421.1430
 20
642.0000
 30
0.0000
  0
VERTEX
  8
CUT
 10
370.0000
 20
642.0000
 30
0.0000
  0
VERTEX
  8
CUT
 10
370.0000
 20
596.6670
 30
0.0000
  0
VERTEX
  8
CUT
 10
374.0000
 20
596.6670
 30
0.0000
  0
VERTEX
  8
CUT
 10
374.0000
 20
551.3330
 30
0.0000
  0
VERTEX
  8
CUT
 10
370.0000
 20
551.3330
 30
0.0000
  0
VERTEX
  8
CUT
 10
370.0000
 20
506.0000
 30
0.0000
  0
VERTEX
  8
CUT
 10
374.0000
 20
506.0000
 30
0.0000
  0
VERTEX
  8
CUT
 10
374.0000
 20
460.6670
 30
0.0000
  0
VERTEX
  8
CUT
 10
370.0000
 20
460.6670
 30
0.0000
  0
VERTEX
  8
CUT
 10
370.0000
 20
415.3330
 30
0.0000
  0
VERTEX
  8
CUT
 10
374.0000
 20
415.3330
 30
0.0000
  0
VERTEX
  8
CUT
 10
374.0000
 20
370.0000
 30
0.0000
  0
VERTEX
  8
CUT
 10
370.0000
 20
370.0000
 30
0.0000
  0
VERTEX
  8
CUT
 10
370.0000
 20
324.6670
 30
0.0000
  0
VERTEX
  8
CUT
 10
374.0000
 20
324.6670
 30
0.0000
  0
VERTEX
  8
CUT
 10
374.0000
 20
279.3330
 30
0.0000
  0
VERTEX
  8
CUT
 10
370.0000
 20
279.3330
 30
0.0000
  0
VERTEX
  8
CUT
 10
370.0000
 20
234.0000
 30
0.0000
  0
VERTEX
  8
CUT
 10
421.1430
 20
234.0000
 30
0.0000
  0
VERTEX
  8
CUT
 10
421.1430
 20
238.0000
 30
0.0000
  0
VERTEX
  8
CUT
 10
472.2860
 20
238.0000
 30
0.0000
  0
VERTEX
  8
CUT
 10
472.2860
 20
234.0000
 30
0.0000
  0
VERTEX
  8
CUT
 10
523.4290
 20
234.0000
 30
0.0000
  0
VERTEX
  8
CUT
 10
523.4290
 20
238.0000
 30
0.0000
  0
VERTEX
  8
CUT
 10
574.5710
 20
238.0000
 30
0.0000
  0
VERTEX
  8
CUT
 10
574.5710
 20
234.0000
 30
0.0000
  0
VERTEX
  8
CUT
 10
625.7140
 20
234.0000
 30
0.0000
  0
VERTEX
  8
CUT
 10
625.7140
 20
238.0000
 30
0.0000
  0
VERTEX
  8
CUT
 10
676.8570
 20
238.0000
 30
0.0000
  0
VERTEX
  8
CUT
 10
676.8570
 20
234.0000
 30
0.0000
  0
VERTEX
  8
CUT
 10
728.0000
 20
234.0000
 30
0.0000
  0
VERTEX
  8
CUT
 10
728.0000
 20
279.3330
 30
0.0000
  0
VERTEX
  8
CUT
 10
724.0000
 20
279.3330
 30
0.0000
  0
VERTEX
  8
CUT
 10
724.0000
 20
324.6670
 30
0.0000
  0
VERTEX
  8
CUT
 10
728.0000
 20
324.6670
 30
0.0000
  0
VERTEX
  8
CUT
 10
728.0000
 20
370.0000
 30
0.0000
  0
VERTEX
  8
CUT
 10
724.0000
 20
370.0000
 30
0.0000
  0
VERTEX
  8
CUT
 10
724.0000
 20
415.3330
 30
0.0000
  0
VERTEX
  8
CUT
 10
728.0000
 20
415.3330
 30
0.0000
  0
VERTEX
  8
CUT
 10
728.0000
 20
460.6670
 30
0.0000
  0
VERTEX
  8
CUT
 10
724.0000
 20
460.6670
 30
0.0000
  0
VERTEX
  8
CUT
 10
724.0000
 20
506.0000
 30
0.0000
  0
VERTEX
  8
CUT
 10
728.0000
 20
506.0000
 30
0.0000
  0
VERTEX
  8
CUT
 10
728.0000
 20
551.3330
 30
0.0000
  0
VERTEX
  8
CUT
 10
724.0000
 20
551.3330
 30
0.0000
  0
VERTEX
  8
CUT
 10
724.0000
 20
596.6670
 30
0.0000
  0
VERTEX
  8
CUT
 10
728.0000
 20
596.6670
 30
0.0000
  0
VERTEX
  8
CUT
 10
728.0000
 20
642.0000
 30
0.0000
  0
VERTEX
  8
CUT
 10
676.8570
 20
642.0000
 30
0.0000
  0
VERTEX
  8
CUT
 10
676.8570
 20
638.0000
 30
0.0000
  0
VERTEX
  8
CUT
 10
625.7140
 20
638.0000
 30
0.0000
  0
VERTEX
  8
CUT
 10
625.7140
 20
642.0000
 30
0.0000
  0
VERTEX
  8
CUT
 10
574.5710
 20
642.0000
 30
0.0000
  0
SEQEND
  8
CUT
  0
CIRCLE
  8
CUT
 10
549.0000
 20
438.0000
 30
0.0000
 40
15.0000
  0
TEXT
  8
LABELS
 10
549.0000
 20
424.0000
 30
0.0000
 40
5
  1
Divider
 72
1
 11
549.0000
 21
424.0000
 31
0.0000
  0
POLYLINE
  8
CUT
 66
1
 10
0.0000
 20
0.0000
 30
0.0000
 70
1
  0
VERTEX
  8
CUT
 10
938.5710
 20
638.0000
 30
0.0000
  0
VERTEX
  8
CUT
 10
887.4290
 20
638.0000
 30
0.0000
  0
VERTEX
  8
CUT
 10
887.4290
 20
642.0000
 30
0.0000
  0
VERTEX
  8
CUT
 10
836.2860
 20
642.0000
 30
0.0000
  0
VERTEX
  8
CUT
 10
836.2860
 20
638.0000
 30
0.0000
  0
VERTEX
  8
CUT
 10
785.1430
 20
638.0000
 30
0.0000
  0
VERTEX
  8
CUT
 10
785.1430
 20
642.0000
 30
0.0000
  0
VERTEX
  8
CUT
 10
734.0000
 20
642.0000
 30
0.0000
  0
VERTEX
  8
CUT
 10
734.0000
 20
596.6670
 30
0.0000
  0
VERTEX
  8
CUT
 10
738.0000
 20
596.6670
 30
0.0000
  0
VERTEX
  8
CUT
 10
738.0000
 20
551.3330
 30
0.0000
  0
VERTEX
  8
CUT
 10
734.0000
 20
551.3330
 30
0.0000
  0
VERTEX
  8
CUT
 10
734.0000
 20
506.0000
 30
0.0000
  0
VERTEX
  8
CUT
 10
738.0000
 20
506.0000
 30
0.0000
  0
VERTEX
  8
CUT
 10
738.0000
 20
460.6670
 30
0.0000
  0
VERTEX
  8
CUT
 10
734.0000
 20
460.6670
 30
0.0000
  0
VERTEX
  8
CUT
 10
734.0000
 20
415.3330
 30
0.0000
  0
VERTEX
  8
CUT
 10
738.0000
 20
415.3330
 30
0.0000
  0
VERTEX
  8
CUT
 10
738.0000
 20
370.0000
 30
0.0000
  0
VERTEX
  8
CUT
 10
734.0000
 20
370.0000
 30
0.0000
  0
VERTEX
  8
CUT
 10
734.0000
 20
324.6670
 30
0.0000
  0
VERTEX
  8
CUT
 10
738.0000
 20
324.6670
 30
0.0000
  0
VERTEX
  8
CUT
 10
738.0000
 20
279.3330
 30
0.0000
  0
VERTEX
  8
CUT
 10
734.0000
 20
279.3330
 30
0.0000
  0
VERTEX
  8
CUT
 10
734.0000
 20
234.0000
 30
0.0000
  0
VERTEX
  8
CUT
 10
785.1430
 20
234.0000
 30
0.0000
  0
VERTEX
  8
CUT
 10
785.1430
 20
238.0000
 30
0.0000
  0
VERTEX
  8
CUT
 10
836.2860
 20
238.0000
 30
0.0000
  0
VERTEX
  8
CUT
 10
836.2860
 20
234.0000
 30
0.0000
  0
VERTEX
  8
CUT
 10
887.4290
 20
234.0000
 30
0.0000
  0
VERTEX
  8
CUT
 10
887.4290
 20
238.0000
 30
0.0000
  0
VERTEX
  8
CUT
 10
938.5710
 20
238.0000
 30
0.0000
  0
VERTEX
  8
CUT
 10
938.5710
 20
234.0000
 30
0.0000
  0
VERTEX
  8
CUT
 10
989.7140
 20
234.0000
 30
0.0000
  0
VERTEX
  8
CUT
 10
989.7140
 20
238.0000
 30
0.0000
  0
VERTEX
  8
CUT
 10
1040.8570
 20
238.0000
 30
0.0000
  0
VERTEX
  8
CUT
 10
1040.8570
 20
234.0000
 30
0.0000
  0
VERTEX
  8
CUT
 10
1092.0000
 20
234.0000
 30
0.0000
  0
VERTEX
  8
CUT
 10
1092.0000
 20
279.3330
 30
0.0000
  0
VERTEX
  8
CUT
 10
1088.0000
 20
279.3330
 30
0.0000
  0
VERTEX
  8
CUT
 10
1088.0000
 20
324.6670
 30
0.0000
  0
VERTEX
  8
CUT
 10
1092.0000
 20
324.6670
 30
0.0000
  0
VERTEX
  8
CUT
 10
1092.0000
 20
370.0000
 30
0.0000
  0
VERTEX
  8
CUT
 10
1088.0000
 20
370.0000
 30
0.0000
  0
VERTEX
  8
CUT
 10
1088.0000
 20
415.3330
 30
0.0000
  0
VERTEX
  8
CUT
 10
1092.0000
 20
415.3330
 30
0.0000
  0
VERTEX
  8
CUT
 10
1092.0000
 20
460.6670
 30
0.0000
  0
VERTEX
  8
CUT
 10
1088.0000
 20
460.6670
 30
0.0000
  0
VERTEX
  8
CUT
 10
1088.0000
 20
506.0000
 30
0.0000
  0
VERTEX
  8
CUT
 10
1092.0000
 20
506.0000
 30
0.0000
  0
VERTEX
  8
CUT
 10
1092.0000
 20
551.3330
 30
0.0000
  0
VERTEX
  8
CUT
 10
1088.0000
 20
551.3330
 30
0.0000
  0
VERTEX
  8
CUT
 10
1088.0000
 20
596.6670
 30
0.0000
  0
VERTEX
  8
CUT
 10
1092.0000
 20
596.6670
 30
0.0000
  0
VERTEX
  8
CUT
 10
1092.0000
 20
642.0000
 30
0.0000
  0
VERTEX
  8
CUT
 10
1040.8570
 20
642.0000
 30
0.0000
  0
VERTEX
  8
CUT
 10
1040.8570
 20
638.0000
 30
0.0000
  0
VERTEX
  8
CUT
 10
989.7140
 20
638.0000
 30
0.0000
  0
VERTEX
  8
CUT
 10
989.7140
 20
642.0000
 30
0.0000
  0
VERTEX
  8
CUT
 10
938.5710
 20
642.0000
 30
0.0000
  0
SEQEND
  8
CUT
  0
CIRCLE
  8
CUT
 10
913.0000
 20
402.0000
 30
0.0000
 40
5.2500
  0
CIRCLE
  8
CUT
 10
803.0000
 20
566.6330
 30
0.0000
 40
5.2500
  0
CIRCLE
  8
CUT
 10
1023.0000
 20
563.0120
 30
0.0000
 40
5.2500
  0
CIRCLE
  8
CUT
 10
1055.0000
 20
291.3840
 30
0.0000
 40
5.2500
  0
TEXT
  8
LABELS
 10
913.0000
 20
424.0000
 30
0.0000
 40
5
  1
Lid
 72
1
 11
913.0000
 21
424.0000
 31
0.0000
  0
POLYLINE
  8
CUT
 66
1
 10
0.0000
 20
0.0000
 30
0.0000
 70
1
  0
VERTEX
  8
CUT
 10
159.4290
 20
120.0000
 30
0.0000
  0
VERTEX
  8
CUT
 10
210.5710
 20
120.0000
 30
0.0000
  0
VERTEX
  8
CUT
 10
210.5710
 20
124.0000
 30
0.0000
  0
VERTEX
  8
CUT
 10
261.7140
 20
124.0000
 30
0.0000
  0
VERTEX
  8
CUT
 10
261.7140
 20
120.0000
 30
0.0000
  0
VERTEX
  8
CUT
 10
312.8570
 20
120.0000
 30
0.0000
  0
VERTEX
  8
CUT
 10
312.8570
 20
124.0000
 30
0.0000
  0
VERTEX
  8
CUT
 10
364.0000
 20
124.0000
 30
0.0000
  0
VERTEX
  8
CUT
 10
364.0000
 20
156.0000
 30
0.0000
  0
VERTEX
  8
CUT
 10
360.0000
 20
156.0000
 30
0.0000
  0
VERTEX
  8
CUT
 10
360.0000
 20
172.0000
 30
0.0000
  0
VERTEX
  8
CUT
 10
312.8570
 20
172.0000
 30
0.0000
  0
VERTEX
  8
CUT
 10
312.8570
 20
176.0000
 30
0.0000
  0
VERTEX
  8
CUT
 10
360.0000
 20
176.0000
 30
0.0000
  0
VERTEX
  8
CUT
 10
360.0000
 20
192.0000
 30
0.0000
  0
VERTEX
  8
CUT
 10
364.0000
 20
192.0000
 30
0.0000
  0
VERTEX
  8
CUT
 10
364.0000
 20
224.0000
 30
0.0000
  0
VERTEX
  8
CUT
 10
312.8570
 20
224.0000
 30
0.0000
  0
VERTEX
  8
CUT
 10
312.8570
 20
228.0000
 30
0.0000
  0
VERTEX
  8
CUT
 10
261.7140
 20
228.0000
 30
0.0000
  0
VERTEX
  8
CUT
 10
261.7140
 20
224.0000
 30
0.0000
  0
VERTEX
  8
CUT
 10
210.5710
 20
224.0000
 30
0.0000
  0
VERTEX
  8
CUT
 10
210.5710
 20
228.0000
 30
0.0000
  0
VERTEX
  8
CUT
 10
159.4290
 20
228.0000
 30
0.0000
  0
VERTEX
  8
CUT
 10
159.4290
 20
224.0000
 30
0.0000
  0
VERTEX
  8
CUT
 10
108.2860
 20
224.0000
 30
0.0000
  0
VERTEX
  8
CUT
 10
108.2860
 20
228.0000
 30
0.0000
  0
VERTEX
  8
CUT
 10
57.1430
 20
228.0000
 30
0.0000
  0
VERTEX
  8
CUT
 10
57.1430
 20
224.0000
 30
0.0000
  0
VERTEX
  8
CUT
 10
6.0000
 20
224.0000
 30
0.0000
  0
VERTEX
  8
CUT
 10
6.0000
 20
192.0000
 30
0.0000
  0
VERTEX
  8
CUT
 10
10.0000
 20
192.0000
 30
0.0000
  0
VERTEX
  8
CUT
 10
10.0000
 20
176.0000
 30
0.0000
  0
VERTEX
  8
CUT
 10
57.1430
 20
176.0000
 30
0.0000
  0
VERTEX
  8
CUT
 10
57.1430
 20
172.0000
 30
0.0000
  0
VERTEX
  8
CUT
 10
10.0000
 20
172.0000
 30
0.0000
  0
VERTEX
  8
CUT
 10
10.0000
 20
156.0000
 30
0.0000
  0
VERTEX
  8
CUT
 10
6.0000
 20
156.0000
 30
0.0000
  0
VERTEX
  8
CUT
 10
6.0000
 20
124.0000
 30
0.0000
  0
VERTEX
  8
CUT
 10
57.1430
 20
124.0000
 30
0.0000
  0
VERTEX
  8
CUT
 10
57.1430
 20
120.0000
 30
0.0000
  0
VERTEX
  8
CUT
 10
108.2860
 20
120.0000
 30
0.0000
  0
VERTEX
  8
CUT
 10
108.2860
 20
124.0000
 30
0.0000
  0
VERTEX
  8
CUT
 10
159.4290
 20
124.0000
 30
0.0000
  0
SEQEND
  8
CUT
  0
POLYLINE
  8
CUT
 66
1
 10
0.0000
 20
0.0000
 30
0.0000
 70
1
  0
VERTEX
  8
CUT
 10
108.2860
 20
176.0000
 30
0.0000
  0
VERTEX
  8
CUT
 10
159.4290
 20
176.0000
 30
0.0000
  0
VERTEX
  8
CUT
 10
159.4290
 20
172.0000
 30
0.0000
  0
VERTEX
  8
CUT
 10
108.2860
 20
172.0000
 30
0.0000
  0
SEQEND
  8
CUT
  0
POLYLINE
  8
CUT
 66
1
 10
0.0000
 20
0.0000
 30
0.0000
 70
1
  0
VERTEX
  8
CUT
 10
210.5710
 20
172.0000
 30
0.0000
  0
VERTEX
  8
CUT
 10
210.5710
 20
176.0000
 30
0.0000
  0
VERTEX
  8
CUT
 10
261.7140
 20
176.0000
 30
0.0000
  0
VERTEX
  8
CUT
 10
261.7140
 20
172.0000
 30
0.0000
  0
SEQEND
  8
CUT
  0
TEXT
  8
LABELS
 10
185.0000
 20
172.0000
 30
0.0000
 40
5
  1
Front
 72
1
 11
185.0000
 21
172.0000
 31
0.0000
  0
POLYLINE
  8
CUT
 66
1
 10
0.0000
 20
0.0000
 30
0.0000
 70
1
  0
VERTEX
  8
CUT
 10
523.4290
 20
120.0000
 30
0.0000
  0
VERTEX
  8
CUT
 10
574.5710
 20
120.0000
 30
0.0000
  0
VERTEX
  8
CUT
 10
574.5710
 20
124.0000
 30
0.0000
  0
VERTEX
  8
CUT
 10
625.7140
 20
124.0000
 30
0.0000
  0
VERTEX
  8
CUT
 10
625.7140
 20
120.0000
 30
0.0000
  0
VERTEX
  8
CUT
 10
676.8570
 20
120.0000
 30
0.0000
  0
VERTEX
  8
CUT
 10
676.8570
 20
124.0000
 30
0.0000
  0
VERTEX
  8
CUT
 10
728.0000
 20
124.0000
 30
0.0000
  0
VERTEX
  8
CUT
 10
728.0000
 20
156.0000
 30
0.0000
  0
VERTEX
  8
CUT
 10
724.0000
 20
156.0000
 30
0.0000
  0
VERTEX
  8
CUT
 10
724.0000
 20
172.0000
 30
0.0000
  0
VERTEX
  8
CUT
 10
676.8570
 20
172.0000
 30
0.0000
  0
VERTEX
  8
CUT
 10
676.8570
 20
176.0000
 30
0.0000
  0
VERTEX
  8
CUT
 10
724.0000
 20
176.0000
 30
0.0000
  0
VERTEX
  8
CUT
 10
724.0000
 20
192.0000
 30
0.0000
  0
VERTEX
  8
CUT
 10
728.0000
 20
192.0000
 30
0.0000
  0
VERTEX
  8
CUT
 10
728.0000
 20
224.0000
 30
0.0000
  0
VERTEX
  8
CUT
 10
676.8570
 20
224.0000
 30
0.0000
  0
VERTEX
  8
CUT
 10
676.8570
 20
228.0000
 30
0.0000
  0
VERTEX
  8
CUT
 10
625.7140
 20
228.0000
 30
0.0000
  0
VERTEX
  8
CUT
 10
625.7140
 20
224.0000
 30
0.0000
  0
VERTEX
  8
CUT
 10
574.5710
 20
224.0000
 30
0.0000
  0
VERTEX
  8
CUT
 10
574.5710
 20
228.0000
 30
0.0000
  0
VERTEX
  8
CUT
 10
523.4290
 20
228.0000
 30
0.0000
  0
VERTEX
  8
CUT
 10
523.4290
 20
224.0000
 30
0.0000
  0
VERTEX
  8
CUT
 10
472.2860
 20
224.0000
 30
0.0000
  0
VERTEX
  8
CUT
 10
472.2860
 20
228.0000
 30
0.0000
  0
VERTEX
  8
CUT
 10
421.1430
 20
228.0000
 30
0.0000
  0
VERTEX
  8
CUT
 10
421.1430
 20
224.0000
 30
0.0000
  0
VERTEX
  8
CUT
 10
370.0000
 20
224.0000
 30
0.0000
  0
VERTEX
  8
CUT
 10
370.0000
 20
192.0000
 30
0.0000
  0
VERTEX
  8
CUT
 10
374.0000
 20
192.0000
 30
0.0000
  0
VERTEX
  8
CUT
 10
374.0000
 20
176.0000
 30
0.0000
  0
VERTEX
  8
CUT
 10
421.1430
 20
176.0000
 30
0.0000
  0
VERTEX
  8
CUT
 10
421.1430
 20
172.0000
 30
0.0000
  0
VERTEX
  8
CUT
 10
374.0000
 20
172.0000
 30
0.0000
  0
VERTEX
  8
CUT
 10
374.0000
 20
156.0000
 30
0.0000
  0
VERTEX
  8
CUT
 10
370.0000
 20
156.0000
 30
0.0000
  0
VERTEX
  8
CUT
 10
370.0000
 20
124.0000
 30
0.0000
  0
VERTEX
  8
CUT
 10
421.1430
 20
124.0000
 30
0.0000
  0
VERTEX
  8
CUT
 10
421.1430
 20
120.0000
 30
0.0000
  0
VERTEX
  8
CUT
 10
472.2860
 20
120.0000
 30
0.0000
  0
VERTEX
  8
CUT
 10
472.2860
 20
124.0000
 30
0.0000
  0
VERTEX
  8
CUT
 10
523.4290
 20
124.0000
 30
0.0000
  0
SEQEND
  8
CUT
  0
POLYLINE
  8
CUT
 66
1
 10
0.0000
 20
0.0000
 30
0.0000
 70
1
  0
VERTEX
  8
CUT
 10
472.2860
 20
176.0000
 30
0.0000
  0
VERTEX
  8
CUT
 10
523.4290
 20
176.0000
 30
0.0000
  0
VERTEX
  8
CUT
 10
523.4290
 20
172.0000
 30
0.0000
  0
VERTEX
  8
CUT
 10
472.2860
 20
172.0000
 30
0.0000
  0
SEQEND
  8
CUT
  0
POLYLINE
  8
CUT
 66
1
 10
0.0000
 20
0.0000
 30
0.0000
 70
1
  0
VERTEX
  8
CUT
 10
574.5710
 20
172.0000
 30
0.0000
  0
VERTEX
  8
CUT
 10
574.5710
 20
176.0000
 30
0.0000
  0
VERTEX
  8
CUT
 10
625.7140
 20
176.0000
 30
0.0000
  0
VERTEX
  8
CUT
 10
625.7140
 20
172.0000
 30
0.0000
  0
SEQEND
  8
CUT
  0
TEXT
  8
LABELS
 10
549.0000
 20
172.0000
 30
0.0000
 40
5
  1
Back
 72
1
 11
549.0000
 21
172.0000
 31
0.0000
  0
POLYLINE
  8
CUT
 66
1
 10
0.0000
 20
0.0000
 30
0.0000
 70
1
  0
VERTEX
  8
CUT
 10
142.0000
 20
6.0000
 30
0.0000
  0
VERTEX
  8
CUT
 10
187.3330
 20
6.0000
 30
0.0000
  0
VERTEX
  8
CUT
 10
187.3330
 20
10.0000
 30
0.0000
  0
VERTEX
  8
CUT
 10
232.6670
 20
10.0000
 30
0.0000
  0
VERTEX
  8
CUT
 10
232.6670
 20
6.0000
 30
0.0000
  0
VERTEX
  8
CUT
 10
278.0000
 20
6.0000
 30
0.0000
  0
VERTEX
  8
CUT
 10
278.0000
 20
10.0000
 30
0.0000
  0
VERTEX
  8
CUT
 10
323.3330
 20
10.0000
 30
0.0000
  0
VERTEX
  8
CUT
 10
323.3330
 20
6.0000
 30
0.0000
  0
VERTEX
  8
CUT
 10
368.6670
 20
6.0000
 30
0.0000
  0
VERTEX
  8
CUT
 10
368.6670
 20
10.0000
 30
0.0000
  0
VERTEX
  8
CUT
 10
410.0000
 20
10.0000
 30
0.0000
  0
VERTEX
  8
CUT
 10
410.0000
 20
42.0000
 30
0.0000
  0
VERTEX
  8
CUT
 10
414.0000
 20
42.0000
 30
0.0000
  0
VERTEX
  8
CUT
 10
414.0000
 20
58.0000
 30
0.0000
  0
VERTEX
  8
CUT
 10
368.6670
 20
58.0000
 30
0.0000
  0
VERTEX
  8
CUT
 10
368.6670
 20
62.0000
 30
0.0000
  0
VERTEX
  8
CUT
 10
414.0000
 20
62.0000
 30
0.0000
  0
VERTEX
  8
CUT
 10
414.0000
 20
78.0000
 30
0.0000
  0
VERTEX
  8
CUT
 10
410.0000
 20
78.0000
 30
0.0000
  0
VERTEX
  8
CUT
 10
410.0000
 20
110.0000
 30
0.0000
  0
VERTEX
  8
CUT
 10
368.6670
 20
110.0000
 30
0.0000
  0
VERTEX
  8
CUT
 10
368.6670
 20
114.0000
 30
0.0000
  0
VERTEX
  8
CUT
 10
323.3330
 20
114.0000
 30
0.0000
  0
VERTEX
  8
CUT
 10
323.3330
 20
110.0000
 30
0.0000
  0
VERTEX
  8
CUT
 10
278.0000
 20
110.0000
 30
0.0000
  0
VERTEX
  8
CUT
 10
278.0000
 20
114.0000
 30
0.0000
  0
VERTEX
  8
CUT
 10
232.6670
 20
114.0000
 30
0.0000
  0
VERTEX
  8
CUT
 10
232.6670
 20
110.0000
 30
0.0000
  0
VERTEX
  8
CUT
 10
187.3330
 20
110.0000
 30
0.0000
  0
VERTEX
  8
CUT
 10
187.3330
 20
114.0000
 30
0.0000
  0
VERTEX
  8
CUT
 10
142.0000
 20
114.0000
 30
0.0000
  0
VERTEX
  8
CUT
 10
142.0000
 20
110.0000
 30
0.0000
  0
VERTEX
  8
CUT
 10
96.6670
 20
110.0000
 30
0.0000
  0
VERTEX
  8
CUT
 10
96.6670
 20
114.0000
 30
0.0000
  0
VERTEX
  8
CUT
 10
51.3330
 20
114.0000
 30
0.0000
  0
VERTEX
  8
CUT
 10
51.3330
 20
110.0000
 30
0.0000
  0
VERTEX
  8
CUT
 10
10.0000
 20
110.0000
 30
0.0000
  0
VERTEX
  8
CUT
 10
10.0000
 20
78.0000
 30
0.0000
  0
VERTEX
  8
CUT
 10
6.0000
 20
78.0000
 30
0.0000
  0
VERTEX
  8
CUT
 10
6.0000
 20
62.0000
 30
0.0000
  0
VERTEX
  8
CUT
 10
51.3330
 20
62.0000
 30
0.0000
  0
VERTEX
  8
CUT
 10
51.3330
 20
58.0000
 30
0.0000
  0
VERTEX
  8
CUT
 10
6.0000
 20
58.0000
 30
0.0000
  0
VERTEX
  8
CUT
 10
6.0000
 20
42.0000
 30
0.0000
  0
VERTEX
  8
CUT
 10
10.0000
 20
42.0000
 30
0.0000
  0
VERTEX
  8
CUT
 10
10.0000
 20
10.0000
 30
0.0000
  0
VERTEX
  8
CUT
 10
51.3330
 20
10.0000
 30
0.0000
  0
VERTEX
  8
CUT
 10
51.3330
 20
6.0000
 30
0.0000
  0
VERTEX
  8
CUT
 10
96.6670
 20
6.0000
 30
0.0000
  0
VERTEX
  8
CUT
 10
96.6670
 20
10.0000
 30
0.0000
  0
VERTEX
  8
CUT
 10
142.0000
 20
10.0000
 30
0.0000
  0
SEQEND
  8
CUT
  0
POLYLINE
  8
CUT
 66
1
 10
0.0000
 20
0.0000
 30
0.0000
 70
1
  0
VERTEX
  8
CUT
 10
96.6670
 20
62.0000
 30
0.0000
  0
VERTEX
  8
CUT
 10
142.0000
 20
62.0000
 30
0.0000
  0
VERTEX
  8
CUT
 10
142.0000
 20
58.0000
 30
0.0000
  0
VERTEX
  8
CUT
 10
96.6670
 20
58.0000
 30
0.0000
  0
SEQEND
  8
CUT
  0
POLYLINE
  8
CUT
 66
1
 10
0.0000
 20
0.0000
 30
0.0000
 70
1
  0
VERTEX
  8
CUT
 10
187.3330
 20
58.0000
 30
0.0000
  0
VERTEX
  8
CUT
 10
187.3330
 20
62.0000
 30
0.0000
  0
VERTEX
  8
CUT
 10
232.6670
 20
62.0000
 30
0.0000
  0
VERTEX
  8
CUT
 10
232.6670
 20
58.0000
 30
0.0000
  0
SEQEND
  8
CUT
  0
POLYLINE
  8
CUT
 66
1
 10
0.0000
 20
0.0000
 30
0.0000
 70
1
  0
VERTEX
  8
CUT
 10
323.3330
 20
62.0000
 30
0.0000
  0
VERTEX
  8
CUT
 10
323.3330
 20
58.0000
 30
0.0000
  0
VERTEX
  8
CUT
 10
278.0000
 20
58.0000
 30
0.0000
  0
VERTEX
  8
CUT
 10
278.0000
 20
62.0000
 30
0.0000
  0
SEQEND
  8
CUT
  0
TEXT
  8
LABELS
 10
210.0000
 20
58.0000
 30
0.0000
 40
5
  1
Left
 72
1
 11
210.0000
 21
58.0000
 31
0.0000
  0
POLYLINE
  8
CUT
 66
1
 10
0.0000
 20
0.0000
 30
0.0000
 70
1
  0
VERTEX
  8
CUT
 10
556.0000
 20
6.0000
 30
0.0000
  0
VERTEX
  8
CUT
 10
601.3330
 20
6.0000
 30
0.0000
  0
VERTEX
  8
CUT
 10
601.3330
 20
10.0000
 30
0.0000
  0
VERTEX
  8
CUT
 10
646.6670
 20
10.0000
 30
0.0000
  0
VERTEX
  8
CUT
 10
646.6670
 20
6.0000
 30
0.0000
  0
VERTEX
  8
CUT
 10
692.0000
 20
6.0000
 30
0.0000
  0
VERTEX
  8
CUT
 10
692.0000
 20
10.0000
 30
0.0000
  0
VERTEX
  8
CUT
 10
737.3330
 20
10.0000
 30
0.0000
  0
VERTEX
  8
CUT
 10
737.3330
 20
6.0000
 30
0.0000
  0
VERTEX
  8
CUT
 10
782.6670
 20
6.0000
 30
0.0000
  0
VERTEX
  8
CUT
 10
782.6670
 20
10.0000
 30
0.0000
  0
VERTEX
  8
CUT
 10
824.0000
 20
10.0000
 30
0.0000
  0
VERTEX
  8
CUT
 10
824.0000
 20
42.0000
 30
0.0000
  0
VERTEX
  8
CUT
 10
828.0000
 20
42.0000
 30
0.0000
  0
VERTEX
  8
CUT
 10
828.0000
 20
58.0000
 30
0.0000
  0
VERTEX
  8
CUT
 10
782.6670
 20
58.0000
 30
0.0000
  0
VERTEX
  8
CUT
 10
782.6670
 20
62.0000
 30
0.0000
  0
VERTEX
  8
CUT
 10
828.0000
 20
62.0000
 30
0.0000
  0
VERTEX
  8
CUT
 10
828.0000
 20
78.0000
 30
0.0000
  0
VERTEX
  8
CUT
 10
824.0000
 20
78.0000
 30
0.0000
  0
VERTEX
  8
CUT
 10
824.0000
 20
110.0000
 30
0.0000
  0
VERTEX
  8
CUT
 10
782.6670
 20
110.0000
 30
0.0000
  0
VERTEX
  8
CUT
 10
782.6670
 20
114.0000
 30
0.0000
  0
VERTEX
  8
CUT
 10
737.3330
 20
114.0000
 30
0.0000
  0
VERTEX
  8
CUT
 10
737.3330
 20
110.0000
 30
0.0000
  0
VERTEX
  8
CUT
 10
692.0000
 20
110.0000
 30
0.0000
  0
VERTEX
  8
CUT
 10
692.0000
 20
114.0000
 30
0.0000
  0
VERTEX
  8
CUT
 10
646.6670
 20
114.0000
 30
0.0000
  0
VERTEX
  8
CUT
 10
646.6670
 20
110.0000
 30
0.0000
  0
VERTEX
  8
CUT
 10
601.3330
 20
110.0000
 30
0.0000
  0
VERTEX
  8
CUT
 10
601.3330
 20
114.0000
 30
0.0000
  0
VERTEX
  8
CUT
 10
556.0000
 20
114.0000
 30
0.0000
  0
VERTEX
  8
CUT
 10
556.0000
 20
110.0000
 30
0.0000
  0
VERTEX
  8
CUT
 10
510.6670
 20
110.0000
 30
0.0000
  0
VERTEX
  8
CUT
 10
510.6670
 20
114.0000
 30
0.0000
  0
VERTEX
  8
CUT
 10
465.3330
 20
114.0000
 30
0.0000
  0
VERTEX
  8
CUT
 10
465.3330
 20
110.0000
 30
0.0000
  0
VERTEX
  8
CUT
 10
424.0000
 20
110.0000
 30
0.0000
  0
VERTEX
  8
CUT
 10
424.0000
 20
78.0000
 30
0.0000
  0
VERTEX
  8
CUT
 10
420.0000
 20
78.0000
 30
0.0000
  0
VERTEX
  8
CUT
 10
420.0000
 20
62.0000
 30
0.0000
  0
VERTEX
  8
CUT
 10
465.3330
 20
62.0000
 30
0.0000
  0
VERTEX
  8
CUT
 10
465.3330
 20
58.0000
 30
0.0000
  0
VERTEX
  8
CUT
 10
420.0000
 20
58.0000
 30
0.0000
  0
VERTEX
  8
CUT
 10
420.0000
 20
42.0000
 30
0.0000
  0
VERTEX
  8
CUT
 10
424.0000
 20
42.0000
 30
0.0000
  0
VERTEX
  8
CUT
 10
424.0000
 20
10.0000
 30
0.0000
  0
VERTEX
  8
CUT
 10
465.3330
 20
10.0000
 30
0.0000
  0
VERTEX
  8
CUT
 10
465.3330
 20
6.0000
 30
0.0000
  0
VERTEX
  8
CUT
 10
510.6670
 20
6.0000
 30
0.0000
  0
VERTEX
  8
CUT
 10
510.6670
 20
10.0000
 30
0.0000
  0
VERTEX
  8
CUT
 10
556.0000
 20
10.0000
 30
0.0000
  0
SEQEND
  8
CUT
  0
POLYLINE
  8
CUT
 66
1
 10
0.0000
 20
0.0000
 30
0.0000
 70
1
  0
VERTEX
  8
CUT
 10
510.6670
 20
62.0000
 30
0.0000
  0
VERTEX
  8
CUT
 10
556.0000
 20
62.0000
 30
0.0000
  0
VERTEX
  8
CUT
 10
556.0000
 20
58.0000
 30
0.0000
  0
VERTEX
  8
CUT
 10
510.6670
 20
58.0000
 30
0.0000
  0
SEQEND
  8
CUT
  0
POLYLINE
  8
CUT
 66
1
 10
0.0000
 20
0.0000
 30
0.0000
 70
1
  0
VERTEX
  8
CUT
 10
601.3330
 20
58.0000
 30
0.0000
  0
VERTEX
  8
CUT
 10
601.3330
 20
62.0000
 30
0.0000
  0
VERTEX
  8
CUT
 10
646.6670
 20
62.0000
 30
0.0000
  0
VERTEX
  8
CUT
 10
646.6670
 20
58.0000
 30
0.0000
  0
SEQEND
  8
CUT
  0
POLYLINE
  8
CUT
 66
1
 10
0.0000
 20
0.0000
 30
0.0000
 70
1
  0
VERTEX
  8
CUT
 10
737.3330
 20
62.0000
 30
0.0000
  0
VERTEX
  8
CUT
 10
737.3330
 20
58.0000
 30
0.0000
  0
VERTEX
  8
CUT
 10
692.0000
 20
58.0000
 30
0.0000
  0
VERTEX
  8
CUT
 10
692.0000
 20
62.0000
 30
0.0000
  0
SEQEND
  8
CUT
  0
TEXT
  8
LABELS
 10
624.0000
 20
58.0000
 30
0.0000
 40
5
  1
Right
 72
1
 11
624.0000
 21
58.0000
 31
0.0000
  0
ENDSEC
  0
EOF
