  0
SECTION
  2
HEADER
  9
$ACADVER
  1
AC1009
  9
$INSUNITS
 70
4
  9
$EXTMIN
 10
0.0000
 20
0.0000
 30
0.0000
  9
$EXTMAX
 10
346.0000
 20
134.0000
 30
0.0000
  0
ENDSEC
  0
SECTION
  2
TABLES
  0
TABLE
  2
LAYER
 70
3
  0
LAYER
  2
CUT
 70
0
 62
1
  6
CONTINUOUS
  0
LAYER
  2
ENGRAVE
 70
0
 62
5
  6
CONTINUOUS
  0
LAYER
  2
LABELS
 70
0
 62
8
  6
CONTINUOUS
  0
ENDTAB
  0
ENDSEC
  0
SECTION
  2
ENTITIES
  0
POLYLINE
  8
CUT
 66
1
 10
0.0000
 20
0.0000
 30
0.0000
 70
1
  0
VERTEX
  8
CUT
 10
21.0000
 20
94.0000
 30
0.0000
  0
VERTEX
  8
CUT
 10
325.0000
 20
94.0000
 30
0.0000
  0
VERTEX
  8
CUT
 10
326.4055
 20
94.0762
 30
0.0000
  0
VERTEX
  8
CUT
 10
327.7946
 20
94.3039
 30
0.0000
  0
VERTEX
  8
CUT
 10
329.1509
 20
94.6805
 30
0.0000
  0
VERTEX
  8
CUT
 10
330.4586
 20
95.2015
 30
0.0000
  0
VERTEX
  8
CUT
 10
331.7022
 20
95.8609
 30
0.0000
  0
VERTEX
  8
CUT
 10
332.8673
 20
96.6508
 30
0.0000
  0
VERTEX
  8
CUT
 10
333.9401
 20
97.5621
 30
0.0000
  0
VERTEX
  8
CUT
 10
334.9081
 20
98.5840
 30
0.0000
  0
VERTEX
  8
CUT
 10
335.7600
 20
99.7046
 30
0.0000
  0
VERTEX
  8
CUT
 10
336.4857
 20
100.9107
 30
0.0000
  0
VERTEX
  8
CUT
 10
337.0767
 20
102.1882
 30
0.0000
  0
VERTEX
  8
CUT
 10
337.5261
 20
103.5221
 30
0.0000
  0
VERTEX
  8
CUT
 10
337.8287
 20
104.8968
 30
0.0000
  0
VERTEX
  8
CUT
 10
337.9809
 20
106.2962
 30
0.0000
  0
VERTEX
  8
CUT
 10
337.9809
 20
107.7038
 30
0.0000
  0
VERTEX
  8
CUT
 10
337.8287
 20
109.1032
 30
0.0000
  0
VERTEX
  8
CUT
 10
337.5261
 20
110.4779
 30
0.0000
  0
VERTEX
  8
CUT
 10
337.0767
 20
111.8118
 30
0.0000
  0
VERTEX
  8
CUT
 10
336.4857
 20
113.0893
 30
0.0000
  0
VERTEX
  8
CUT
 10
335.7600
 20
114.2954
 30
0.0000
  0
VERTEX
  8
CUT
 10
334.9081
 20
115.4160
 30
0.0000
  0
VERTEX
  8
CUT
 10
333.9401
 20
116.4379
 30
0.0000
  0
VERTEX
  8
CUT
 10
332.8673
 20
117.3492
 30
0.0000
  0
VERTEX
  8
CUT
 10
331.7022
 20
118.1391
 30
0.0000
  0
VERTEX
  8
CUT
 10
330.4586
 20
118.7985
 30
0.0000
  0
VERTEX
  8
CUT
 10
329.1509
 20
119.3195
 30
0.0000
  0
VERTEX
  8
CUT
 10
327.7946
 20
119.6961
 30
0.0000
  0
VERTEX
  8
CUT
 10
326.4055
 20
119.9238
 30
0.0000
  0
VERTEX
  8
CUT
 10
325.0000
 20
120.0000
 30
0.0000
  0
VERTEX
  8
CUT
 10
21.0000
 20
120.0000
 30
0.0000
  0
VERTEX
  8
CUT
 10
19.5945
 20
119.9238
 30
0.0000
  0
VERTEX
  8
CUT
 10
18.2054
 20
119.6961
 30
0.0000
  0
VERTEX
  8
CUT
 10
16.8491
 20
119.3195
 30
0.0000
  0
VERTEX
  8
CUT
 10
15.5414
 20
118.7985
 30
0.0000
  0
VERTEX
  8
CUT
 10
14.2978
 20
118.1391
 30
0.0000
  0
VERTEX
  8
CUT
 10
13.1327
 20
117.3492
 30
0.0000
  0
VERTEX
  8
CUT
 10
12.0599
 20
116.4379
 30
0.0000
  0
VERTEX
  8
CUT
 10
11.0919
 20
115.4160
 30
0.0000
  0
VERTEX
  8
CUT
 10
10.2400
 20
114.2954
 30
0.0000
  0
VERTEX
  8
CUT
 10
9.5143
 20
113.0893
 30
0.0000
  0
VERTEX
  8
CUT
 10
8.9233
 20
111.8118
 30
0.0000
  0
VERTEX
  8
CUT
 10
8.4739
 20
110.4779
 30
0.0000
  0
VERTEX
  8
CUT
 10
8.1713
 20
109.1032
 30
0.0000
  0
VERTEX
  8
CUT
 10
8.0191
 20
107.7038
 30
0.0000
  0
VERTEX
  8
CUT
 10
8.0191
 20
106.2962
 30
0.0000
  0
VERTEX
  8
CUT
 10
8.1713
 20
104.8968
 30
0.0000
  0
VERTEX
  8
CUT
 10
8.4739
 20
103.5221
 30
0.0000
  0
VERTEX
  8
CUT
 10
8.9233
 20
102.1882
 30
0.0000
  0
VERTEX
  8
CUT
 10
9.5143
 20
100.9107
 30
0.0000
  0
VERTEX
  8
CUT
 10
10.2400
 20
99.7046
 30
0.0000
  0
VERTEX
  8
CUT
 10
11.0919
 20
98.5840
 30
0.0000
  0
VERTEX
  8
CUT
 10
12.0599
 20
97.5621
 30
0.0000
  0
VERTEX
  8
CUT
 10
13.1327
 20
96.6508
 30
0.0000
  0
VERTEX
  8
CUT
 10
14.2978
 20
95.8609
 30
0.0000
  0
VERTEX
  8
CUT
 10
15.5414
 20
95.2015
 30
0.0000
  0
VERTEX
  8
CUT
 10
16.8491
 20
94.6805
 30
0.0000
  0
VERTEX
  8
CUT
 10
18.2054
 20
94.3039
 30
0.0000
  0
VERTEX
  8
CUT
 10
19.5945
 20
94.0762
 30
0.0000
  0
SEQEND
  8
CUT
  0
CIRCLE
  8
CUT
 10
21.0000
 20
107.0000
 30
0.0000
 40
5.2500
  0
CIRCLE
  8
CUT
 10
53.0000
 20
107.0000
 30
0.0000
 40
5.2500
  0
CIRCLE
  8
CUT
 10
73.0000
 20
107.0000
 30
0.0000
 40
5.2500
  0
CIRCLE
  8
CUT
 10
93.0000
 20
107.0000
 30
0.0000
 40
5.2500
  0
CIRCLE
  8
CUT
 10
113.0000
 20
107.0000
 30
0.0000
 40
5.2500
  0
CIRCLE
  8
CUT
 10
133.0000
 20
107.0000
 30
0.0000
 40
5.2500
  0
POLYLINE
  8
CUT
 66
1
 10
0.0000
 20
0.0000
 30
0.0000
 70
1
  0
VERTEX
  8
CUT
 10
173.0000
 20
101.7500
 30
0.0000
  0
VERTEX
  8
CUT
 10
325.0000
 20
101.7500
 30
0.0000
  0
VERTEX
  8
CUT
 10
325.9117
 20
101.8298
 30
0.0000
  0
VERTEX
  8
CUT
 10
326.7956
 20
102.0666
 30
0.0000
  0
VERTEX
  8
CUT
 10
327.6250
 20
102.4534
 30
0.0000
  0
VERTEX
  8
CUT
 10
328.3746
 20
102.9783
 30
0.0000
  0
VERTEX
  8
CUT
 10
329.0217
 20
103.6254
 30
0.0000
  0
VERTEX
  8
CUT
 10
329.5466
 20
104.3750
 30
0.0000
  0
VERTEX
  8
CUT
 10
329.9334
 20
105.2044
 30
0.0000
  0
VERTEX
  8
CUT
 10
330.1702
 20
106.0883
 30
0.0000
  0
VERTEX
  8
CUT
 10
330.2500
 20
107.0000
 30
0.0000
  0
VERTEX
  8
CUT
 10
330.1702
 20
107.9117
 30
0.0000
  0
VERTEX
  8
CUT
 10
329.9334
 20
108.7956
 30
0.0000
  0
VERTEX
  8
CUT
 10
329.5466
 20
109.6250
 30
0.0000
  0
VERTEX
  8
CUT
 10
329.0217
 20
110.3746
 30
0.0000
  0
VERTEX
  8
CUT
 10
328.3746
 20
111.0217
 30
0.0000
  0
VERTEX
  8
CUT
 10
327.6250
 20
111.5466
 30
0.0000
  0
VERTEX
  8
CUT
 10
326.7956
 20
111.9334
 30
0.0000
  0
VERTEX
  8
CUT
 10
325.9117
 20
112.1702
 30
0.0000
  0
VERTEX
  8
CUT
 10
325.0000
 20
112.2500
 30
0.0000
  0
VERTEX
  8
CUT
 10
173.0000
 20
112.2500
 30
0.0000
  0
VERTEX
  8
CUT
 10
172.0883
 20
112.1702
 30
0.0000
  0
VERTEX
  8
CUT
 10
171.2044
 20
111.9334
 30
0.0000
  0
VERTEX
  8
CUT
 10
170.3750
 20
111.5466
 30
0.0000
  0
VERTEX
  8
CUT
 10
169.6254
 20
111.0217
 30
0.0000
  0
VERTEX
  8
CUT
 10
168.9783
 20
110.3746
 30
0.0000
  0
VERTEX
  8
CUT
 10
168.4534
 20
109.6250
 30
0.0000
  0
VERTEX
  8
CUT
 10
168.0666
 20
108.7956
 30
0.0000
  0
VERTEX
  8
CUT
 10
167.8298
 20
107.9117
 30
0.0000
  0
VERTEX
  8
CUT
 10
167.7500
 20
107.0000
 30
0.0000
  0
VERTEX
  8
CUT
 10
167.8298
 20
106.0883
 30
0.0000
  0
VERTEX
  8
CUT
 10
168.0666
 20
105.2044
 30
0.0000
  0
VERTEX
  8
CUT
 10
168.4534
 20
104.3750
 30
0.0000
  0
VERTEX
  8
CUT
 10
168.9783
 20
103.6254
 30
0.0000
  0
VERTEX
  8
CUT
 10
169.6254
 20
102.9783
 30
0.0000
  0
VERTEX
  8
CUT
 10
170.3750
 20
102.4534
 30
0.0000
  0
VERTEX
  8
CUT
 10
171.2044
 20
102.0666
 30
0.0000
  0
VERTEX
  8
CUT
 10
172.0883
 20
101.8298
 30
0.0000
  0
SEQEND
  8
CUT
  0
TEXT
  8
LABELS
 10
173.0000
 20
122.0000
 30
0.0000
 40
5
  1
dwarsarm
 72
1
 11
173.0000
 21
122.0000
 31
0.0000
  0
POLYLINE
  8
CUT
 66
1
 10
0.0000
 20
0.0000
 30
0.0000
 70
1
  0
VERTEX
  8
CUT
 10
21.0000
 20
52.0000
 30
0.0000
  0
VERTEX
  8
CUT
 10
255.0000
 20
52.0000
 30
0.0000
  0
VERTEX
  8
CUT
 10
256.4055
 20
52.0762
 30
0.0000
  0
VERTEX
  8
CUT
 10
257.7946
 20
52.3039
 30
0.0000
  0
VERTEX
  8
CUT
 10
259.1509
 20
52.6805
 30
0.0000
  0
VERTEX
  8
CUT
 10
260.4586
 20
53.2015
 30
0.0000
  0
VERTEX
  8
CUT
 10
261.7022
 20
53.8609
 30
0.0000
  0
VERTEX
  8
CUT
 10
262.8673
 20
54.6508
 30
0.0000
  0
VERTEX
  8
CUT
 10
263.9401
 20
55.5621
 30
0.0000
  0
VERTEX
  8
CUT
 10
264.9081
 20
56.5840
 30
0.0000
  0
VERTEX
  8
CUT
 10
265.7600
 20
57.7046
 30
0.0000
  0
VERTEX
  8
CUT
 10
266.4857
 20
58.9107
 30
0.0000
  0
VERTEX
  8
CUT
 10
267.0767
 20
60.1882
 30
0.0000
  0
VERTEX
  8
CUT
 10
267.5261
 20
61.5221
 30
0.0000
  0
VERTEX
  8
CUT
 10
267.8287
 20
62.8968
 30
0.0000
  0
VERTEX
  8
CUT
 10
267.9809
 20
64.2962
 30
0.0000
  0
VERTEX
  8
CUT
 10
267.9809
 20
65.7038
 30
0.0000
  0
VERTEX
  8
CUT
 10
267.8287
 20
67.1032
 30
0.0000
  0
VERTEX
  8
CUT
 10
267.5261
 20
68.4779
 30
0.0000
  0
VERTEX
  8
CUT
 10
267.0767
 20
69.8118
 30
0.0000
  0
VERTEX
  8
CUT
 10
266.4857
 20
71.0893
 30
0.0000
  0
VERTEX
  8
CUT
 10
265.7600
 20
72.2954
 30
0.0000
  0
VERTEX
  8
CUT
 10
264.9081
 20
73.4160
 30
0.0000
  0
VERTEX
  8
CUT
 10
263.9401
 20
74.4379
 30
0.0000
  0
VERTEX
  8
CUT
 10
262.8673
 20
75.3492
 30
0.0000
  0
VERTEX
  8
CUT
 10
261.7022
 20
76.1391
 30
0.0000
  0
VERTEX
  8
CUT
 10
260.4586
 20
76.7985
 30
0.0000
  0
VERTEX
  8
CUT
 10
259.1509
 20
77.3195
 30
0.0000
  0
VERTEX
  8
CUT
 10
257.7946
 20
77.6961
 30
0.0000
  0
VERTEX
  8
CUT
 10
256.4055
 20
77.9238
 30
0.0000
  0
VERTEX
  8
CUT
 10
255.0000
 20
78.0000
 30
0.0000
  0
VERTEX
  8
CUT
 10
21.0000
 20
78.0000
 30
0.0000
  0
VERTEX
  8
CUT
 10
19.5945
 20
77.9238
 30
0.0000
  0
VERTEX
  8
CUT
 10
18.2054
 20
77.6961
 30
0.0000
  0
VERTEX
  8
CUT
 10
16.8491
 20
77.3195
 30
0.0000
  0
VERTEX
  8
CUT
 10
15.5414
 20
76.7985
 30
0.0000
  0
VERTEX
  8
CUT
 10
14.2978
 20
76.1391
 30
0.0000
  0
VERTEX
  8
CUT
 10
13.1327
 20
75.3492
 30
0.0000
  0
VERTEX
  8
CUT
 10
12.0599
 20
74.4379
 30
0.0000
  0
VERTEX
  8
CUT
 10
11.0919
 20
73.4160
 30
0.0000
  0
VERTEX
  8
CUT
 10
10.2400
 20
72.2954
 30
0.0000
  0
VERTEX
  8
CUT
 10
9.5143
 20
71.0893
 30
0.0000
  0
VERTEX
  8
CUT
 10
8.9233
 20
69.8118
 30
0.0000
  0
VERTEX
  8
CUT
 10
8.4739
 20
68.4779
 30
0.0000
  0
VERTEX
  8
CUT
 10
8.1713
 20
67.1032
 30
0.0000
  0
VERTEX
  8
CUT
 10
8.0191
 20
65.7038
 30
0.0000
  0
VERTEX
  8
CUT
 10
8.0191
 20
64.2962
 30
0.0000
  0
VERTEX
  8
CUT
 10
8.1713
 20
62.8968
 30
0.0000
  0
VERTEX
  8
CUT
 10
8.4739
 20
61.5221
 30
0.0000
  0
VERTEX
  8
CUT
 10
8.9233
 20
60.1882
 30
0.0000
  0
VERTEX
  8
CUT
 10
9.5143
 20
58.9107
 30
0.0000
  0
VERTEX
  8
CUT
 10
10.2400
 20
57.7046
 30
0.0000
  0
VERTEX
  8
CUT
 10
11.0919
 20
56.5840
 30
0.0000
  0
VERTEX
  8
CUT
 10
12.0599
 20
55.5621
 30
0.0000
  0
VERTEX
  8
CUT
 10
13.1327
 20
54.6508
 30
0.0000
  0
VERTEX
  8
CUT
 10
14.2978
 20
53.8609
 30
0.0000
  0
VERTEX
  8
CUT
 10
15.5414
 20
53.2015
 30
0.0000
  0
VERTEX
  8
CUT
 10
16.8491
 20
52.6805
 30
0.0000
  0
VERTEX
  8
CUT
 10
18.2054
 20
52.3039
 30
0.0000
  0
VERTEX
  8
CUT
 10
19.5945
 20
52.0762
 30
0.0000
  0
SEQEND
  8
CUT
  0
CIRCLE
  8
CUT
 10
21.0000
 20
65.0000
 30
0.0000
 40
5.2500
  0
CIRCLE
  8
CUT
 10
41.0000
 20
65.0000
 30
0.0000
 40
5.2500
  0
CIRCLE
  8
CUT
 10
61.0000
 20
65.0000
 30
0.0000
 40
5.2500
  0
CIRCLE
  8
CUT
 10
81.0000
 20
65.0000
 30
0.0000
 40
5.2500
  0
CIRCLE
  8
CUT
 10
101.0000
 20
65.0000
 30
0.0000
 40
5.2500
  0
CIRCLE
  8
CUT
 10
121.0000
 20
65.0000
 30
0.0000
 40
5.2500
  0
CIRCLE
  8
CUT
 10
141.0000
 20
65.0000
 30
0.0000
 40
5.2500
  0
CIRCLE
  8
CUT
 10
161.0000
 20
65.0000
 30
0.0000
 40
5.2500
  0
CIRCLE
  8
CUT
 10
181.0000
 20
65.0000
 30
0.0000
 40
5.2500
  0
CIRCLE
  8
CUT
 10
201.0000
 20
65.0000
 30
0.0000
 40
5.2500
  0
CIRCLE
  8
CUT
 10
221.0000
 20
65.0000
 30
0.0000
 40
5.2500
  0
CIRCLE
  8
CUT
 10
253.0000
 20
65.0000
 30
0.0000
 40
6.0000
  0
TEXT
  8
LABELS
 10
138.0000
 20
80.0000
 30
0.0000
 40
5
  1
penarm A
 72
1
 11
138.0000
 21
80.0000
 31
0.0000
  0
POLYLINE
  8
CUT
 66
1
 10
0.0000
 20
0.0000
 30
0.0000
 70
1
  0
VERTEX
  8
CUT
 10
21.0000
 20
10.0000
 30
0.0000
  0
VERTEX
  8
CUT
 10
255.0000
 20
10.0000
 30
0.0000
  0
VERTEX
  8
CUT
 10
256.4055
 20
10.0762
 30
0.0000
  0
VERTEX
  8
CUT
 10
257.7946
 20
10.3039
 30
0.0000
  0
VERTEX
  8
CUT
 10
259.1509
 20
10.6805
 30
0.0000
  0
VERTEX
  8
CUT
 10
260.4586
 20
11.2015
 30
0.0000
  0
VERTEX
  8
CUT
 10
261.7022
 20
11.8609
 30
0.0000
  0
VERTEX
  8
CUT
 10
262.8673
 20
12.6508
 30
0.0000
  0
VERTEX
  8
CUT
 10
263.9401
 20
13.5621
 30
0.0000
  0
VERTEX
  8
CUT
 10
264.9081
 20
14.5840
 30
0.0000
  0
VERTEX
  8
CUT
 10
265.7600
 20
15.7046
 30
0.0000
  0
VERTEX
  8
CUT
 10
266.4857
 20
16.9107
 30
0.0000
  0
VERTEX
  8
CUT
 10
267.0767
 20
18.1882
 30
0.0000
  0
VERTEX
  8
CUT
 10
267.5261
 20
19.5221
 30
0.0000
  0
VERTEX
  8
CUT
 10
267.8287
 20
20.8968
 30
0.0000
  0
VERTEX
  8
CUT
 10
267.9809
 20
22.2962
 30
0.0000
  0
VERTEX
  8
CUT
 10
267.9809
 20
23.7038
 30
0.0000
  0
VERTEX
  8
CUT
 10
267.8287
 20
25.1032
 30
0.0000
  0
VERTEX
  8
CUT
 10
267.5261
 20
26.4779
 30
0.0000
  0
VERTEX
  8
CUT
 10
267.0767
 20
27.8118
 30
0.0000
  0
VERTEX
  8
CUT
 10
266.4857
 20
29.0893
 30
0.0000
  0
VERTEX
  8
CUT
 10
265.7600
 20
30.2954
 30
0.0000
  0
VERTEX
  8
CUT
 10
264.9081
 20
31.4160
 30
0.0000
  0
VERTEX
  8
CUT
 10
263.9401
 20
32.4379
 30
0.0000
  0
VERTEX
  8
CUT
 10
262.8673
 20
33.3492
 30
0.0000
  0
VERTEX
  8
CUT
 10
261.7022
 20
34.1391
 30
0.0000
  0
VERTEX
  8
CUT
 10
260.4586
 20
34.7985
 30
0.0000
  0
VERTEX
  8
CUT
 10
259.1509
 20
35.3195
 30
0.0000
  0
VERTEX
  8
CUT
 10
257.7946
 20
35.6961
 30
0.0000
  0
VERTEX
  8
CUT
 10
256.4055
 20
35.9238
 30
0.0000
  0
VERTEX
  8
CUT
 10
255.0000
 20
36.0000
 30
0.0000
  0
VERTEX
  8
CUT
 10
21.0000
 20
36.0000
 30
0.0000
  0
VERTEX
  8
CUT
 10
19.5945
 20
35.9238
 30
0.0000
  0
VERTEX
  8
CUT
 10
18.2054
 20
35.6961
 30
0.0000
  0
VERTEX
  8
CUT
 10
16.8491
 20
35.3195
 30
0.0000
  0
VERTEX
  8
CUT
 10
15.5414
 20
34.7985
 30
0.0000
  0
VERTEX
  8
CUT
 10
14.2978
 20
34.1391
 30
0.0000
  0
VERTEX
  8
CUT
 10
13.1327
 20
33.3492
 30
0.0000
  0
VERTEX
  8
CUT
 10
12.0599
 20
32.4379
 30
0.0000
  0
VERTEX
  8
CUT
 10
11.0919
 20
31.4160
 30
0.0000
  0
VERTEX
  8
CUT
 10
10.2400
 20
30.2954
 30
0.0000
  0
VERTEX
  8
CUT
 10
9.5143
 20
29.0893
 30
0.0000
  0
VERTEX
  8
CUT
 10
8.9233
 20
27.8118
 30
0.0000
  0
VERTEX
  8
CUT
 10
8.4739
 20
26.4779
 30
0.0000
  0
VERTEX
  8
CUT
 10
8.1713
 20
25.1032
 30
0.0000
  0
VERTEX
  8
CUT
 10
8.0191
 20
23.7038
 30
0.0000
  0
VERTEX
  8
CUT
 10
8.0191
 20
22.2962
 30
0.0000
  0
VERTEX
  8
CUT
 10
8.1713
 20
20.8968
 30
0.0000
  0
VERTEX
  8
CUT
 10
8.4739
 20
19.5221
 30
0.0000
  0
VERTEX
  8
CUT
 10
8.9233
 20
18.1882
 30
0.0000
  0
VERTEX
  8
CUT
 10
9.5143
 20
16.9107
 30
0.0000
  0
VERTEX
  8
CUT
 10
10.2400
 20
15.7046
 30
0.0000
  0
VERTEX
  8
CUT
 10
11.0919
 20
14.5840
 30
0.0000
  0
VERTEX
  8
CUT
 10
12.0599
 20
13.5621
 30
0.0000
  0
VERTEX
  8
CUT
 10
13.1327
 20
12.6508
 30
0.0000
  0
VERTEX
  8
CUT
 10
14.2978
 20
11.8609
 30
0.0000
  0
VERTEX
  8
CUT
 10
15.5414
 20
11.2015
 30
0.0000
  0
VERTEX
  8
CUT
 10
16.8491
 20
10.6805
 30
0.0000
  0
VERTEX
  8
CUT
 10
18.2054
 20
10.3039
 30
0.0000
  0
VERTEX
  8
CUT
 10
19.5945
 20
10.0762
 30
0.0000
  0
SEQEND
  8
CUT
  0
CIRCLE
  8
CUT
 10
21.0000
 20
23.0000
 30
0.0000
 40
5.2500
  0
CIRCLE
  8
CUT
 10
41.0000
 20
23.0000
 30
0.0000
 40
5.2500
  0
CIRCLE
  8
CUT
 10
61.0000
 20
23.0000
 30
0.0000
 40
5.2500
  0
CIRCLE
  8
CUT
 10
81.0000
 20
23.0000
 30
0.0000
 40
5.2500
  0
CIRCLE
  8
CUT
 10
101.0000
 20
23.0000
 30
0.0000
 40
5.2500
  0
CIRCLE
  8
CUT
 10
121.0000
 20
23.0000
 30
0.0000
 40
5.2500
  0
CIRCLE
  8
CUT
 10
141.0000
 20
23.0000
 30
0.0000
 40
5.2500
  0
CIRCLE
  8
CUT
 10
161.0000
 20
23.0000
 30
0.0000
 40
5.2500
  0
CIRCLE
  8
CUT
 10
181.0000
 20
23.0000
 30
0.0000
 40
5.2500
  0
CIRCLE
  8
CUT
 10
201.0000
 20
23.0000
 30
0.0000
 40
5.2500
  0
CIRCLE
  8
CUT
 10
221.0000
 20
23.0000
 30
0.0000
 40
5.2500
  0
CIRCLE
  8
CUT
 10
253.0000
 20
23.0000
 30
0.0000
 40
6.0000
  0
TEXT
  8
LABELS
 10
138.0000
 20
38.0000
 30
0.0000
 40
5
  1
penarm B
 72
1
 11
138.0000
 21
38.0000
 31
0.0000
  0
ENDSEC
  0
EOF
